<svg aria-roledescription="er" role="graphics-document document" viewBox="-14.158363342285156 0 421.6250305175781 486" style="max-width: 421.625px; background-color: white;" xmlns:xlink="http://www.w3.org/1999/xlink" xmlns="http://www.w3.org/2000/svg" width="100%" id="my-svg"><style>#my-svg{font-family:"trebuchet ms",verdana,arial,sans-serif;font-size:16px;fill:#000000;}#my-svg .error-icon{fill:#552222;}#my-svg .error-text{fill:#552222;stroke:#552222;}#my-svg .edge-thickness-normal{stroke-width:2px;}#my-svg .edge-thickness-thick{stroke-width:3.5px;}#my-svg .edge-pattern-solid{stroke-dasharray:0;}#my-svg .edge-pattern-dashed{stroke-dasharray:3;}#my-svg .edge-pattern-dotted{stroke-dasharray:2;}#my-svg .marker{fill:#000000;stroke:#000000;}#my-svg .marker.cross{stroke:#000000;}#my-svg svg{font-family:"trebuchet ms",verdana,arial,sans-serif;font-size:16px;}#my-svg .entityBox{fill:#cde498;stroke:#13540c;}#my-svg .attributeBoxOdd{fill:#ffffff;stroke:#13540c;}#my-svg .attributeBoxEven{fill:#f2f2f2;stroke:#13540c;}#my-svg .relationshipLabelBox{fill:hsl(78.1578947368, 58.4615384615%, 84.5098039216%);opacity:0.7;background-color:hsl(78.1578947368, 58.4615384615%, 84.5098039216%);}#my-svg .relationshipLabelBox rect{opacity:0.5;}#my-svg .relationshipLine{stroke:#000000;}#my-svg .entityTitleText{text-anchor:middle;font-size:18px;fill:#000000;}#my-svg #MD_PARENT_START{fill:#f5f5f5!important;stroke:#000000!important;stroke-width:1;}#my-svg #MD_PARENT_END{fill:#f5f5f5!important;stroke:#000000!important;stroke-width:1;}#my-svg :root{--mermaid-font-family:"trebuchet ms",verdana,arial,sans-serif;}</style><g/><defs><marker orient="auto" markerHeight="240" markerWidth="190" refY="7" refX="0" id="MD_PARENT_START"><path d="M 18,7 L9,13 L1,7 L9,1 Z"/></marker></defs><defs><marker orient="auto" markerHeight="28" markerWidth="20" refY="7" refX="19" id="MD_PARENT_END"><path d="M 18,7 L9,13 L1,7 L9,1 Z"/></marker></defs><defs><marker orient="auto" markerHeight="18" markerWidth="18" refY="9" refX="0" id="ONLY_ONE_START"><path d="M9,0 L9,18 M15,0 L15,18" fill="none" stroke="gray"/></marker></defs><defs><marker orient="auto" markerHeight="18" markerWidth="18" refY="9" refX="18" id="ONLY_ONE_END"><path d="M3,0 L3,18 M9,0 L9,18" fill="none" stroke="gray"/></marker></defs><defs><marker orient="auto" markerHeight="18" markerWidth="30" refY="9" refX="0" id="ZERO_OR_ONE_START"><circle r="6" cy="9" cx="21" fill="white" stroke="gray"/><path d="M9,0 L9,18" fill="none" stroke="gray"/></marker></defs><defs><marker orient="auto" markerHeight="18" markerWidth="30" refY="9" refX="30" id="ZERO_OR_ONE_END"><circle r="6" cy="9" cx="9" fill="white" stroke="gray"/><path d="M21,0 L21,18" fill="none" stroke="gray"/></marker></defs><defs><marker orient="auto" markerHeight="36" markerWidth="45" refY="18" refX="18" id="ONE_OR_MORE_START"><path d="M0,18 Q 18,0 36,18 Q 18,36 0,18 M42,9 L42,27" fill="none" stroke="gray"/></marker></defs><defs><marker orient="auto" markerHeight="36" markerWidth="45" refY="18" refX="27" id="ONE_OR_MORE_END"><path d="M3,9 L3,27 M9,18 Q27,0 45,18 Q27,36 9,18" fill="none" stroke="gray"/></marker></defs><defs><marker orient="auto" markerHeight="36" markerWidth="57" refY="18" refX="18" id="ZERO_OR_MORE_START"><circle r="6" cy="18" cx="48" fill="white" stroke="gray"/><path d="M0,18 Q18,0 36,18 Q18,36 0,18" fill="none" stroke="gray"/></marker></defs><defs><marker orient="auto" markerHeight="36" markerWidth="57" refY="18" refX="39" id="ZERO_OR_MORE_END"><circle r="6" cy="18" cx="9" fill="white" stroke="gray"/><path d="M21,18 Q39,0 57,18 Q39,36 21,18" fill="none" stroke="gray"/></marker></defs><path style="stroke: gray; fill: none;" marker-start="url(#ZERO_OR_MORE_START)" marker-end="url(#ZERO_OR_MORE_END)" d="M53.87347142226031,214L51.0390043020789,222.33333333333334C48.2045371818975,230.66666666666666,42.535602941534684,247.33333333333334,43.008014128231586,264C43.48042531492849,280.6666666666667,50.09418192868511,297.3333333333333,53.40106023556341,305.6666666666667L56.70793854244172,314" class="er relationshipLine"/><path style="stroke: gray; fill: none;" marker-start="url(#ZERO_OR_ONE_START)" marker-end="url(#ONLY_ONE_END)" d="M117.02539885990203,314L120.33227716678033,305.6666666666667C123.63915547365865,297.3333333333333,130.25291208741524,280.6666666666667,130.72532327411216,264C131.19773446080907,247.33333333333334,125.52880022044626,230.66666666666666,122.69433310026484,222.33333333333334L119.85986598008344,214" class="er relationshipLine"/><g transform="translate(20,20 )" id="entity-comment-7f0f0a76-83e4-502b-856c-6daf5a42833b"><rect height="194" width="133.73333740234375" y="0" x="0" class="er entityBox"/><text style="dominant-baseline: middle; text-anchor: middle; font-size: 12px;" transform="translate(66.86666870117188,12)" y="0" x="0" id="text-entity-comment-7f0f0a76-83e4-502b-856c-6daf5a42833b" class="er entityLabel">comment</text><rect height="23" width="54.113128662109375" y="24" x="0" class="er attributeBoxOdd"/><text style="dominant-baseline: middle; font-size: 10.2px;" transform="translate(5,35.5)" y="0" x="0" id="text-entity-comment-7f0f0a76-83e4-502b-856c-6daf5a42833b-attr-1-type" class="er entityLabel">String</text><rect height="23" width="56.620208740234375" y="24" x="54.113128662109375" class="er attributeBoxOdd"/><text style="dominant-baseline: middle; font-size: 10.2px;" transform="translate(59.113128662109375,35.5)" y="0" x="0" id="text-entity-comment-7f0f0a76-83e4-502b-856c-6daf5a42833b-attr-1-name" class="er entityLabel">id</text><rect height="23" width="23" y="24" x="110.73333740234375" class="er attributeBoxOdd"/><text style="dominant-baseline: middle; font-size: 10.2px;" transform="translate(115.73333740234375,35.5)" y="0" x="0" id="text-entity-comment-7f0f0a76-83e4-502b-856c-6daf5a42833b-attr-1-comment" class="er entityLabel">🗝️</text><rect height="21" width="54.113128662109375" y="47" x="0" class="er attributeBoxEven"/><text style="dominant-baseline: middle; font-size: 10.2px;" transform="translate(5,57.5)" y="0" x="0" id="text-entity-comment-7f0f0a76-83e4-502b-856c-6daf5a42833b-attr-2-type" class="er entityLabel">String</text><rect height="21" width="56.620208740234375" y="47" x="54.113128662109375" class="er attributeBoxEven"/><text style="dominant-baseline: middle; font-size: 10.2px;" transform="translate(59.113128662109375,57.5)" y="0" x="0" id="text-entity-comment-7f0f0a76-83e4-502b-856c-6daf5a42833b-attr-2-name" class="er entityLabel">userId</text><rect height="21" width="23" y="47" x="110.73333740234375" class="er attributeBoxEven"/><text style="dominant-baseline: middle; font-size: 10.2px;" transform="translate(115.73333740234375,57.5)" y="0" x="0" id="text-entity-comment-7f0f0a76-83e4-502b-856c-6daf5a42833b-attr-2-comment" class="er entityLabel"/><rect height="21" width="54.113128662109375" y="68" x="0" class="er attributeBoxOdd"/><text style="dominant-baseline: middle; font-size: 10.2px;" transform="translate(5,78.5)" y="0" x="0" id="text-entity-comment-7f0f0a76-83e4-502b-856c-6daf5a42833b-attr-3-type" class="er entityLabel">String</text><rect height="21" width="56.620208740234375" y="68" x="54.113128662109375" class="er attributeBoxOdd"/><text style="dominant-baseline: middle; font-size: 10.2px;" transform="translate(59.113128662109375,78.5)" y="0" x="0" id="text-entity-comment-7f0f0a76-83e4-502b-856c-6daf5a42833b-attr-3-name" class="er entityLabel">postId</text><rect height="21" width="23" y="68" x="110.73333740234375" class="er attributeBoxOdd"/><text style="dominant-baseline: middle; font-size: 10.2px;" transform="translate(115.73333740234375,78.5)" y="0" x="0" id="text-entity-comment-7f0f0a76-83e4-502b-856c-6daf5a42833b-attr-3-comment" class="er entityLabel"/><rect height="21" width="54.113128662109375" y="89" x="0" class="er attributeBoxEven"/><text style="dominant-baseline: middle; font-size: 10.2px;" transform="translate(5,99.5)" y="0" x="0" id="text-entity-comment-7f0f0a76-83e4-502b-856c-6daf5a42833b-attr-4-type" class="er entityLabel">String</text><rect height="21" width="56.620208740234375" y="89" x="54.113128662109375" class="er attributeBoxEven"/><text style="dominant-baseline: middle; font-size: 10.2px;" transform="translate(59.113128662109375,99.5)" y="0" x="0" id="text-entity-comment-7f0f0a76-83e4-502b-856c-6daf5a42833b-attr-4-name" class="er entityLabel">name</text><rect height="21" width="23" y="89" x="110.73333740234375" class="er attributeBoxEven"/><text style="dominant-baseline: middle; font-size: 10.2px;" transform="translate(115.73333740234375,99.5)" y="0" x="0" id="text-entity-comment-7f0f0a76-83e4-502b-856c-6daf5a42833b-attr-4-comment" class="er entityLabel"/><rect height="21" width="54.113128662109375" y="110" x="0" class="er attributeBoxOdd"/><text style="dominant-baseline: middle; font-size: 10.2px;" transform="translate(5,120.5)" y="0" x="0" id="text-entity-comment-7f0f0a76-83e4-502b-856c-6daf5a42833b-attr-5-type" class="er entityLabel">String</text><rect height="21" width="56.620208740234375" y="110" x="54.113128662109375" class="er attributeBoxOdd"/><text style="dominant-baseline: middle; font-size: 10.2px;" transform="translate(59.113128662109375,120.5)" y="0" x="0" id="text-entity-comment-7f0f0a76-83e4-502b-856c-6daf5a42833b-attr-5-name" class="er entityLabel">comment</text><rect height="21" width="23" y="110" x="110.73333740234375" class="er attributeBoxOdd"/><text style="dominant-baseline: middle; font-size: 10.2px;" transform="translate(115.73333740234375,120.5)" y="0" x="0" id="text-entity-comment-7f0f0a76-83e4-502b-856c-6daf5a42833b-attr-5-comment" class="er entityLabel"/><rect height="21" width="54.113128662109375" y="131" x="0" class="er attributeBoxEven"/><text style="dominant-baseline: middle; font-size: 10.2px;" transform="translate(5,141.5)" y="0" x="0" id="text-entity-comment-7f0f0a76-83e4-502b-856c-6daf5a42833b-attr-6-type" class="er entityLabel">Int</text><rect height="21" width="56.620208740234375" y="131" x="54.113128662109375" class="er attributeBoxEven"/><text style="dominant-baseline: middle; font-size: 10.2px;" transform="translate(59.113128662109375,141.5)" y="0" x="0" id="text-entity-comment-7f0f0a76-83e4-502b-856c-6daf5a42833b-attr-6-name" class="er entityLabel">likes</text><rect height="21" width="23" y="131" x="110.73333740234375" class="er attributeBoxEven"/><text style="dominant-baseline: middle; font-size: 10.2px;" transform="translate(115.73333740234375,141.5)" y="0" x="0" id="text-entity-comment-7f0f0a76-83e4-502b-856c-6daf5a42833b-attr-6-comment" class="er entityLabel"/><rect height="21" width="54.113128662109375" y="152" x="0" class="er attributeBoxOdd"/><text style="dominant-baseline: middle; font-size: 10.2px;" transform="translate(5,162.5)" y="0" x="0" id="text-entity-comment-7f0f0a76-83e4-502b-856c-6daf5a42833b-attr-7-type" class="er entityLabel">DateTime</text><rect height="21" width="56.620208740234375" y="152" x="54.113128662109375" class="er attributeBoxOdd"/><text style="dominant-baseline: middle; font-size: 10.2px;" transform="translate(59.113128662109375,162.5)" y="0" x="0" id="text-entity-comment-7f0f0a76-83e4-502b-856c-6daf5a42833b-attr-7-name" class="er entityLabel">createdAt</text><rect height="21" width="23" y="152" x="110.73333740234375" class="er attributeBoxOdd"/><text style="dominant-baseline: middle; font-size: 10.2px;" transform="translate(115.73333740234375,162.5)" y="0" x="0" id="text-entity-comment-7f0f0a76-83e4-502b-856c-6daf5a42833b-attr-7-comment" class="er entityLabel"/><rect height="21" width="54.113128662109375" y="173" x="0" class="er attributeBoxEven"/><text style="dominant-baseline: middle; font-size: 10.2px;" transform="translate(5,183.5)" y="0" x="0" id="text-entity-comment-7f0f0a76-83e4-502b-856c-6daf5a42833b-attr-8-type" class="er entityLabel">DateTime</text><rect height="21" width="56.620208740234375" y="173" x="54.113128662109375" class="er attributeBoxEven"/><text style="dominant-baseline: middle; font-size: 10.2px;" transform="translate(59.113128662109375,183.5)" y="0" x="0" id="text-entity-comment-7f0f0a76-83e4-502b-856c-6daf5a42833b-attr-8-name" class="er entityLabel">updatedAt</text><rect height="21" width="23" y="173" x="110.73333740234375" class="er attributeBoxEven"/><text style="dominant-baseline: middle; font-size: 10.2px;" transform="translate(115.73333740234375,183.5)" y="0" x="0" id="text-entity-comment-7f0f0a76-83e4-502b-856c-6daf5a42833b-attr-8-comment" class="er entityLabel"/></g><g transform="translate(20,314 )" id="entity-commentlike-5658499e-8b48-5675-a60e-23047daea321"><rect height="152" width="133.73333740234375" y="0" x="0" class="er entityBox"/><text style="dominant-baseline: middle; text-anchor: middle; font-size: 12px;" transform="translate(66.86666870117188,12)" y="0" x="0" id="text-entity-commentlike-5658499e-8b48-5675-a60e-23047daea321" class="er entityLabel">comment_like</text><rect height="23" width="54.113128662109375" y="24" x="0" class="er attributeBoxOdd"/><text style="dominant-baseline: middle; font-size: 10.2px;" transform="translate(5,35.5)" y="0" x="0" id="text-entity-commentlike-5658499e-8b48-5675-a60e-23047daea321-attr-1-type" class="er entityLabel">String</text><rect height="23" width="56.620208740234375" y="24" x="54.113128662109375" class="er attributeBoxOdd"/><text style="dominant-baseline: middle; font-size: 10.2px;" transform="translate(59.113128662109375,35.5)" y="0" x="0" id="text-entity-commentlike-5658499e-8b48-5675-a60e-23047daea321-attr-1-name" class="er entityLabel">id</text><rect height="23" width="23" y="24" x="110.73333740234375" class="er attributeBoxOdd"/><text style="dominant-baseline: middle; font-size: 10.2px;" transform="translate(115.73333740234375,35.5)" y="0" x="0" id="text-entity-commentlike-5658499e-8b48-5675-a60e-23047daea321-attr-1-comment" class="er entityLabel">🗝️</text><rect height="21" width="54.113128662109375" y="47" x="0" class="er attributeBoxEven"/><text style="dominant-baseline: middle; font-size: 10.2px;" transform="translate(5,57.5)" y="0" x="0" id="text-entity-commentlike-5658499e-8b48-5675-a60e-23047daea321-attr-2-type" class="er entityLabel">String</text><rect height="21" width="56.620208740234375" y="47" x="54.113128662109375" class="er attributeBoxEven"/><text style="dominant-baseline: middle; font-size: 10.2px;" transform="translate(59.113128662109375,57.5)" y="0" x="0" id="text-entity-commentlike-5658499e-8b48-5675-a60e-23047daea321-attr-2-name" class="er entityLabel">userId</text><rect height="21" width="23" y="47" x="110.73333740234375" class="er attributeBoxEven"/><text style="dominant-baseline: middle; font-size: 10.2px;" transform="translate(115.73333740234375,57.5)" y="0" x="0" id="text-entity-commentlike-5658499e-8b48-5675-a60e-23047daea321-attr-2-comment" class="er entityLabel"/><rect height="21" width="54.113128662109375" y="68" x="0" class="er attributeBoxOdd"/><text style="dominant-baseline: middle; font-size: 10.2px;" transform="translate(5,78.5)" y="0" x="0" id="text-entity-commentlike-5658499e-8b48-5675-a60e-23047daea321-attr-3-type" class="er entityLabel">String</text><rect height="21" width="56.620208740234375" y="68" x="54.113128662109375" class="er attributeBoxOdd"/><text style="dominant-baseline: middle; font-size: 10.2px;" transform="translate(59.113128662109375,78.5)" y="0" x="0" id="text-entity-commentlike-5658499e-8b48-5675-a60e-23047daea321-attr-3-name" class="er entityLabel">postId</text><rect height="21" width="23" y="68" x="110.73333740234375" class="er attributeBoxOdd"/><text style="dominant-baseline: middle; font-size: 10.2px;" transform="translate(115.73333740234375,78.5)" y="0" x="0" id="text-entity-commentlike-5658499e-8b48-5675-a60e-23047daea321-attr-3-comment" class="er entityLabel"/><rect height="21" width="54.113128662109375" y="89" x="0" class="er attributeBoxEven"/><text style="dominant-baseline: middle; font-size: 10.2px;" transform="translate(5,99.5)" y="0" x="0" id="text-entity-commentlike-5658499e-8b48-5675-a60e-23047daea321-attr-4-type" class="er entityLabel">Int</text><rect height="21" width="56.620208740234375" y="89" x="54.113128662109375" class="er attributeBoxEven"/><text style="dominant-baseline: middle; font-size: 10.2px;" transform="translate(59.113128662109375,99.5)" y="0" x="0" id="text-entity-commentlike-5658499e-8b48-5675-a60e-23047daea321-attr-4-name" class="er entityLabel">type</text><rect height="21" width="23" y="89" x="110.73333740234375" class="er attributeBoxEven"/><text style="dominant-baseline: middle; font-size: 10.2px;" transform="translate(115.73333740234375,99.5)" y="0" x="0" id="text-entity-commentlike-5658499e-8b48-5675-a60e-23047daea321-attr-4-comment" class="er entityLabel"/><rect height="21" width="54.113128662109375" y="110" x="0" class="er attributeBoxOdd"/><text style="dominant-baseline: middle; font-size: 10.2px;" transform="translate(5,120.5)" y="0" x="0" id="text-entity-commentlike-5658499e-8b48-5675-a60e-23047daea321-attr-5-type" class="er entityLabel">DateTime</text><rect height="21" width="56.620208740234375" y="110" x="54.113128662109375" class="er attributeBoxOdd"/><text style="dominant-baseline: middle; font-size: 10.2px;" transform="translate(59.113128662109375,120.5)" y="0" x="0" id="text-entity-commentlike-5658499e-8b48-5675-a60e-23047daea321-attr-5-name" class="er entityLabel">createdAt</text><rect height="21" width="23" y="110" x="110.73333740234375" class="er attributeBoxOdd"/><text style="dominant-baseline: middle; font-size: 10.2px;" transform="translate(115.73333740234375,120.5)" y="0" x="0" id="text-entity-commentlike-5658499e-8b48-5675-a60e-23047daea321-attr-5-comment" class="er entityLabel"/><rect height="21" width="54.113128662109375" y="131" x="0" class="er attributeBoxEven"/><text style="dominant-baseline: middle; font-size: 10.2px;" transform="translate(5,141.5)" y="0" x="0" id="text-entity-commentlike-5658499e-8b48-5675-a60e-23047daea321-attr-6-type" class="er entityLabel">DateTime</text><rect height="21" width="56.620208740234375" y="131" x="54.113128662109375" class="er attributeBoxEven"/><text style="dominant-baseline: middle; font-size: 10.2px;" transform="translate(59.113128662109375,141.5)" y="0" x="0" id="text-entity-commentlike-5658499e-8b48-5675-a60e-23047daea321-attr-6-name" class="er entityLabel">updatedAt</text><rect height="21" width="23" y="131" x="110.73333740234375" class="er attributeBoxEven"/><text style="dominant-baseline: middle; font-size: 10.2px;" transform="translate(115.73333740234375,141.5)" y="0" x="0" id="text-entity-commentlike-5658499e-8b48-5675-a60e-23047daea321-attr-6-comment" class="er entityLabel"/></g><g transform="translate(253.73333740234375,41 )" id="entity-postlike-83aa36ed-fec1-5ea0-9d0c-f99b7173bbf1"><rect height="152" width="133.73333740234375" y="0" x="0" class="er entityBox"/><text style="dominant-baseline: middle; text-anchor: middle; font-size: 12px;" transform="translate(66.86666870117188,12)" y="0" x="0" id="text-entity-postlike-83aa36ed-fec1-5ea0-9d0c-f99b7173bbf1" class="er entityLabel">post_like</text><rect height="23" width="54.113128662109375" y="24" x="0" class="er attributeBoxOdd"/><text style="dominant-baseline: middle; font-size: 10.2px;" transform="translate(5,35.5)" y="0" x="0" id="text-entity-postlike-83aa36ed-fec1-5ea0-9d0c-f99b7173bbf1-attr-1-type" class="er entityLabel">String</text><rect height="23" width="56.620208740234375" y="24" x="54.113128662109375" class="er attributeBoxOdd"/><text style="dominant-baseline: middle; font-size: 10.2px;" transform="translate(59.113128662109375,35.5)" y="0" x="0" id="text-entity-postlike-83aa36ed-fec1-5ea0-9d0c-f99b7173bbf1-attr-1-name" class="er entityLabel">id</text><rect height="23" width="23" y="24" x="110.73333740234375" class="er attributeBoxOdd"/><text style="dominant-baseline: middle; font-size: 10.2px;" transform="translate(115.73333740234375,35.5)" y="0" x="0" id="text-entity-postlike-83aa36ed-fec1-5ea0-9d0c-f99b7173bbf1-attr-1-comment" class="er entityLabel">🗝️</text><rect height="21" width="54.113128662109375" y="47" x="0" class="er attributeBoxEven"/><text style="dominant-baseline: middle; font-size: 10.2px;" transform="translate(5,57.5)" y="0" x="0" id="text-entity-postlike-83aa36ed-fec1-5ea0-9d0c-f99b7173bbf1-attr-2-type" class="er entityLabel">String</text><rect height="21" width="56.620208740234375" y="47" x="54.113128662109375" class="er attributeBoxEven"/><text style="dominant-baseline: middle; font-size: 10.2px;" transform="translate(59.113128662109375,57.5)" y="0" x="0" id="text-entity-postlike-83aa36ed-fec1-5ea0-9d0c-f99b7173bbf1-attr-2-name" class="er entityLabel">userId</text><rect height="21" width="23" y="47" x="110.73333740234375" class="er attributeBoxEven"/><text style="dominant-baseline: middle; font-size: 10.2px;" transform="translate(115.73333740234375,57.5)" y="0" x="0" id="text-entity-postlike-83aa36ed-fec1-5ea0-9d0c-f99b7173bbf1-attr-2-comment" class="er entityLabel"/><rect height="21" width="54.113128662109375" y="68" x="0" class="er attributeBoxOdd"/><text style="dominant-baseline: middle; font-size: 10.2px;" transform="translate(5,78.5)" y="0" x="0" id="text-entity-postlike-83aa36ed-fec1-5ea0-9d0c-f99b7173bbf1-attr-3-type" class="er entityLabel">String</text><rect height="21" width="56.620208740234375" y="68" x="54.113128662109375" class="er attributeBoxOdd"/><text style="dominant-baseline: middle; font-size: 10.2px;" transform="translate(59.113128662109375,78.5)" y="0" x="0" id="text-entity-postlike-83aa36ed-fec1-5ea0-9d0c-f99b7173bbf1-attr-3-name" class="er entityLabel">postId</text><rect height="21" width="23" y="68" x="110.73333740234375" class="er attributeBoxOdd"/><text style="dominant-baseline: middle; font-size: 10.2px;" transform="translate(115.73333740234375,78.5)" y="0" x="0" id="text-entity-postlike-83aa36ed-fec1-5ea0-9d0c-f99b7173bbf1-attr-3-comment" class="er entityLabel"/><rect height="21" width="54.113128662109375" y="89" x="0" class="er attributeBoxEven"/><text style="dominant-baseline: middle; font-size: 10.2px;" transform="translate(5,99.5)" y="0" x="0" id="text-entity-postlike-83aa36ed-fec1-5ea0-9d0c-f99b7173bbf1-attr-4-type" class="er entityLabel">Int</text><rect height="21" width="56.620208740234375" y="89" x="54.113128662109375" class="er attributeBoxEven"/><text style="dominant-baseline: middle; font-size: 10.2px;" transform="translate(59.113128662109375,99.5)" y="0" x="0" id="text-entity-postlike-83aa36ed-fec1-5ea0-9d0c-f99b7173bbf1-attr-4-name" class="er entityLabel">type</text><rect height="21" width="23" y="89" x="110.73333740234375" class="er attributeBoxEven"/><text style="dominant-baseline: middle; font-size: 10.2px;" transform="translate(115.73333740234375,99.5)" y="0" x="0" id="text-entity-postlike-83aa36ed-fec1-5ea0-9d0c-f99b7173bbf1-attr-4-comment" class="er entityLabel"/><rect height="21" width="54.113128662109375" y="110" x="0" class="er attributeBoxOdd"/><text style="dominant-baseline: middle; font-size: 10.2px;" transform="translate(5,120.5)" y="0" x="0" id="text-entity-postlike-83aa36ed-fec1-5ea0-9d0c-f99b7173bbf1-attr-5-type" class="er entityLabel">DateTime</text><rect height="21" width="56.620208740234375" y="110" x="54.113128662109375" class="er attributeBoxOdd"/><text style="dominant-baseline: middle; font-size: 10.2px;" transform="translate(59.113128662109375,120.5)" y="0" x="0" id="text-entity-postlike-83aa36ed-fec1-5ea0-9d0c-f99b7173bbf1-attr-5-name" class="er entityLabel">createdAt</text><rect height="21" width="23" y="110" x="110.73333740234375" class="er attributeBoxOdd"/><text style="dominant-baseline: middle; font-size: 10.2px;" transform="translate(115.73333740234375,120.5)" y="0" x="0" id="text-entity-postlike-83aa36ed-fec1-5ea0-9d0c-f99b7173bbf1-attr-5-comment" class="er entityLabel"/><rect height="21" width="54.113128662109375" y="131" x="0" class="er attributeBoxEven"/><text style="dominant-baseline: middle; font-size: 10.2px;" transform="translate(5,141.5)" y="0" x="0" id="text-entity-postlike-83aa36ed-fec1-5ea0-9d0c-f99b7173bbf1-attr-6-type" class="er entityLabel">DateTime</text><rect height="21" width="56.620208740234375" y="131" x="54.113128662109375" class="er attributeBoxEven"/><text style="dominant-baseline: middle; font-size: 10.2px;" transform="translate(59.113128662109375,141.5)" y="0" x="0" id="text-entity-postlike-83aa36ed-fec1-5ea0-9d0c-f99b7173bbf1-attr-6-name" class="er entityLabel">updatedAt</text><rect height="21" width="23" y="131" x="110.73333740234375" class="er attributeBoxEven"/><text style="dominant-baseline: middle; font-size: 10.2px;" transform="translate(115.73333740234375,141.5)" y="0" x="0" id="text-entity-postlike-83aa36ed-fec1-5ea0-9d0c-f99b7173bbf1-attr-6-comment" class="er entityLabel"/></g><rect height="14" width="74.353515625" y="257.3325500488281" x="5.841636657714844" class="er relationshipLabelBox"/><text style="text-anchor: middle; dominant-baseline: middle; font-size: 12px;" y="264.3325500488281" x="43.018394470214844" id="rel1" class="er relationshipLabel">CommentLike</text><rect height="14" width="50.013671875" y="257.3325500488281" x="105.7081298828125" class="er relationshipLabelBox"/><text style="text-anchor: middle; dominant-baseline: middle; font-size: 12px;" y="264.3325500488281" x="130.7149658203125" id="rel2" class="er relationshipLabel">comment</text></svg>